<?xml version="1.0" encoding="utf-8"?>
<!-- Generator: Adobe Illustrator 16.0.0, SVG Export Plug-In . SVG Version: 6.00 Build 0)  -->
<!DOCTYPE svg PUBLIC "-//W3C//DTD SVG 1.1//EN" "http://www.w3.org/Graphics/SVG/1.1/DTD/svg11.dtd">
<svg version="1.1" id="Layer_1" xmlns="http://www.w3.org/2000/svg" xmlns:xlink="http://www.w3.org/1999/xlink" x="0px" y="0px"
	 height="110px" viewBox="61.5 94.75 177.465 214.25" enable-background="new 61.5 94.75 177.465 214.25"
	 xml:space="preserve">
<g transform="matrix( 1, 0, 0, 1, 0,0) ">
	<g>
		<g id="Layer0_0_FILL">
			<path fill="#EB7077" d="M199.5,140.35l-26-1.1c11.253,3.054,17.119,9.854,17.6,20.4c0.077,1.7-0.007,3.317-0.25,4.85
				c-1.221,8.112-6.754,14.195-16.6,18.25h-51c-30.418,4.71-46.668,23.211-48.75,55.5v24l4.2,4.3
				c7.692-18.985,19.876-31.085,36.55-36.3c7.717-1.684,14.3-2.684,19.75-3h49.25c16.171-1.417,29.071-7.301,38.7-17.65
				c5.667-6.066,9.817-13.167,12.449-21.3c0.242-0.69,0.459-1.391,0.65-2.1c0.404-1.348,0.754-2.731,1.05-4.15
				C231.732,156.957,219.198,143.057,199.5,140.35z"/>
			<path fill="#F6A2AD" d="M173.5,139.25l26,1.1c19.697,2.707,32.231,16.607,37.6,41.7c0.89-3.953,1.457-8.137,1.7-12.55
				c0.91-16.346-1.939-29.762-8.55-40.25c-12.944-19.521-32.361-31.021-58.25-34.5H61.5l45,44.5H173.5 M135,227.25
				c-5.45,0.316-12.033,1.316-19.75,3c-16.674,5.215-28.857,17.314-36.55,36.3L120,309v-65
				C120.986,235.332,125.986,229.748,135,227.25z"/>
		</g>
	</g>
</g>
</svg>
