<?xml version="1.0" encoding="utf-8"?>
<!-- Generator: Adobe Illustrator 16.0.0, SVG Export Plug-In . SVG Version: 6.00 Build 0)  -->
<!DOCTYPE svg PUBLIC "-//W3C//DTD SVG 1.1//EN" "http://www.w3.org/Graphics/SVG/1.1/DTD/svg11.dtd">
<svg version="1.1" id="Layer_1" xmlns="http://www.w3.org/2000/svg" xmlns:xlink="http://www.w3.org/1999/xlink" x="0px" y="0px"
	 height="96px" viewBox="53.75 62.25 202 263" enable-background="new 53.75 62.25 202 263" xml:space="preserve">
<g transform="matrix( 1, 0, 0, 1, 0,0) ">
	<g>
		<g id="Layer0_0_FILL">
			<path fill="#EB7077" d="M188.75,164.25c-0.066,13.566-5.816,21.066-17.25,22.5c-20.533-1-33.2,7.916-38,26.75v35h71.75
				c31.666,1.2,48.5-14.467,50.5-47v-93c-1.867-27.867-15.033-43.283-39.5-46.25H84c-19.433,1.167-29.517,13.833-30.25,38
				c5.5-20.867,17.083-31.033,34.75-30.5h71c18.434,2.033,28.184,10.867,29.25,26.5V164.25z"/>
			<path fill="#F6A2AD" d="M180.25,131.25c0.3-2.4-0.7-4.15-3-5.25H78.5c-14.4,2.7-22.483,12.033-24.25,28l0.25,171.25H99
				c13.567-1.633,21.067-10.383,22.5-26.25V145.5c0.167-8.233,5.083-12.983,14.75-14.25H180.25z"/>
		</g>
	</g>
</g>
</svg>
